{"title":"The Tuxedo 2002 HDRip H264 AAC-Rx(Phoenix-RG)","uid":5765612,"size":1735227517,"categoryP":"video","categoryS":"hd___movies","magnet":"?xt=urn:btih:29c4da0f01c461a5723e8c76a1321884b2d8f7e0&amp;dn=The+Tuxedo+2002+HDRip+H264+AAC-Rx%28Phoenix-RG%29&amp;tr=udp%3A%2F%2Ftracker.openbittorrent.com%3A80&amp;tr=udp%3A%2F%2Fopen.demonii.com%3A1337&amp;tr=udp%3A%2F%2Ftracker.coppersurfer.tk%3A6969&amp;tr=udp%3A%2F%2Fexodus.desync.com%3A6969","seeders":12,"leechers":2,"uploader":"rev-x","files":7,"time":1281889758,"description":" The Tuxedo 2002 HDRip H264 AAC-Rx(Phoenix-RG).mp4\n      Format : MPEG-4\n      Format profile : Base Media\n      Codec ID : isom\n      File size : 1.62 GiB\n      Duration : 1h 38mn\n      Overall bit rate : 2 352 Kbps\n      \n   Video #1\n      Format : AVC\n      Format/Info : Advanced Video Codec\n      Format profile : &lt;a class=&quot;__cf_email__&quot; href=&quot;/cdn-cgi/l/email-protection&quot; data-cfemail=&quot;aae2c3cdc2eae69e849b&quot;&gt;[email&amp;#160;protected]&lt;/a&gt;&lt;script data-cfhash='f9e31' type=&quot;text/javascript&quot;&gt;\n/* &lt;![CDATA[ */!function(){try{var t=&quot;currentScript&quot;in document?document.currentScript:function(){for(var t=document.getElementsByTagName(&quot;script&quot;),e=t.length;e--;)if(t[e].getAttribute(&quot;data-cfhash&quot;))return t[e]}();if(t&amp;&amp;t.previousSibling){var e,r,n,i,c=t.previousSibling,a=c.getAttribute(&quot;data-cfemail&quot;);if(a){for(e=&quot;&quot;,r=parseInt(a.substr(0,2),16),n=2;a.length-n;n+=2)i=parseInt(a.substr(n,2),16)^r,e+=String.fromCharCode(i);e=document.createTextNode(e),c.parentNode.replaceChild(e,c)}t.parentNode.removeChild(t);}}catch(u){}}()/* ]]&gt; */&lt;/script&gt;\n      Format settings, CABAC : Yes\n      Format settings, ReFrames : 8 frames\n      Codec ID : avc1\n      Codec ID/Info : Advanced Video Coding\n      Duration : 1h 38mn\n      Bit rate mode : Variable\n      Bit rate : 2 030 Kbps\n      Maximum bit rate : 8 371 Kbps\n      Width : 1 280 pixels\n      Height : 720 pixels\n      Display aspect ratio : 16/9\n      Frame rate mode : Constant\n      Frame rate : 23.976 fps\n      Resolution : 24 bits\n      Colorimetry : 4:2:0\n      Scan type : Progressive\n      Bits/(Pixel*Frame) : 0.092\n      Stream size : 1.39 GiB (86%)\n      Writing library : x264 core 92 r1510 33d382a\n      \n   Audio #2\n      Format : AAC\n      Format/Info : Advanced Audio Codec\n      Format version : Version 4\n      Format profile : LC\n      Format settings, SBR : No\n      Codec ID : 40\n      Duration : 1h 38mn\n      Bit rate mode : Variable\n      Bit rate : 321 Kbps\n      Maximum bit rate : 385 Kbps\n      Channel(s) : 6 channels\n      Channel positions : Front: L C R, Rear: L R, LFE\n      Sampling rate : 48.0 KHz\n      Resolution : 16 bits\n      Stream size : 226 MiB (14%)\n\nSCREEN:\n &lt;a href=&quot;\nhttp://img192.imageshack.us/img192/8664/vlcsnap278079.jpg&quot; rel=&quot;nofollow&quot; target=&quot;_NEW&quot;&gt;\nhttp://img192.imageshack.us/img192/8664/vlcsnap278079.jpg&lt;/a&gt;\n &lt;a href=&quot;\nhttp://img227.imageshack.us/img227/9248/vlcsnap278438.jpg&quot; rel=&quot;nofollow&quot; target=&quot;_NEW&quot;&gt;\nhttp://img227.imageshack.us/img227/9248/vlcsnap278438.jpg&lt;/a&gt;\n &lt;a href=&quot;\nhttp://img832.imageshack.us/img832/3610/vlcsnap279421.jpg&quot; rel=&quot;nofollow&quot; target=&quot;_NEW&quot;&gt;\nhttp://img832.imageshack.us/img832/3610/vlcsnap279421.jpg&lt;/a&gt;","torrent":{"xt":"urn:btih:29c4da0f01c461a5723e8c76a1321884b2d8f7e0","amp;dn":"The+Tuxedo+2002+HDRip+H264+AAC-Rx%28Phoenix-RG%29","amp;tr":["udp%3A%2F%2Ftracker.openbittorrent.com%3A80","udp%3A%2F%2Fopen.demonii.com%3A1337","udp%3A%2F%2Ftracker.coppersurfer.tk%3A6969","udp%3A%2F%2Fexodus.desync.com%3A6969"],"infoHash":"29c4da0f01c461a5723e8c76a1321884b2d8f7e0","infoHashBuffer":{"type":"Buffer","data":[41,196,218,15,1,196,97,165,114,62,140,118,161,50,24,132,178,216,247,224]},"announce":[],"urlList":[]}}